# xmcd
#
# Track frame offsets:
#	150
#	9549
#	21558
#	33750
#	50797
#	61794
#	74884
#	86622
#	100598
#	109909
#	121408
#	134799
#	145075
#	158306
#	170124
#	180038
#	196887
#	207596
#	221467
#	228912
#	244921
#	260743
#
# Disc length: 3657 seconds
#
# Revision: 0
# Processed by: cddbd v1.5.2PL0 Copyright (c) Steve Scherf et al.
# Submitted via: EasyCDDAExtractor 16.0.6.1
#
DISCID=400e4716
DTITLE=Various Artist - Country Sunset [Disc 07]
DYEAR=1900
DGENRE=Country
TTITLE0=Webb Pierce - Honky Tonk Song
TTITLE1=Roy Drusky - Three Hearts in a Triangle
TTITLE2=Jeannie C. Riley - There Never Was a Time
TTITLE3=Henson Cargill - Always on My Mind
TTITLE4=The Carlisles - No Help Wanted
TTITLE5=Hank Williams - Hey Good Lookin'
TTITLE6=Lynn Anderson - How Can I Unlove You
TTITLE7=T. Graham Brown - Come as You Were
TTITLE8=Wilma Burgess - When Will I Be Loved
TTITLE9=Jimmy C. Newman - Cry Cry Darling
TTITLE10=Bobby Helms - My Special Angel
TTITLE11=Connie Smith - Once a Day
TTITLE12=Roy Clark - Come Live with Me
TTITLE13=Roger Miller - Walkin' In the Sunshine
TTITLE14=Patsy Cline - Turn the Cards Slowly
TTITLE15=Faron Young - Sunday Morning Come Down
TTITLE16=Ferlin Husky - Wings of a Dove
TTITLE17=Jeannie Seely - Don't Touch Me
TTITLE18=Dolly Parton - Puppy Love
TTITLE19=The Country Dance Kings - American Honky
TTITLE20=Ride the River - The First Cut is the Deepest
TTITLE21=T. Graham Brown - I Tell it Like it Used to Be
EXTD=
EXTT0=
EXTT1=
EXTT2=
EXTT3=
EXTT4=
EXTT5=
EXTT6=
EXTT7=
EXTT8=
EXTT9=
EXTT10=
EXTT11=
EXTT12=
EXTT13=
EXTT14=
EXTT15=
EXTT16=
EXTT17=
EXTT18=
EXTT19=
EXTT20=
EXTT21=
PLAYORDER=
